HIERARCHY
ROOT joint_Root
{
  OFFSET 0 0 0
  CHANNELS 6 Xposition Yposition Zposition Zrotation Xrotation Yrotation
  JOINT Hips
  {
    OFFSET 0 93.9241 -3
    CHANNELS 6 Xposition Yposition Zposition Zrotation Xrotation Yrotation
    JOINT Spine
    {
      OFFSET 15.7357 0 0
      CHANNELS 6 Xposition Yposition Zposition Zrotation Xrotation Yrotation
      JOINT Chest
      {
        OFFSET 8.98455 -0.406207 0
        CHANNELS 6 Xposition Yposition Zposition Zrotation Xrotation Yrotation
        JOINT Neck
        {
          OFFSET 16.3773 0 0
          CHANNELS 6 Xposition Yposition Zposition Zrotation Xrotation Yrotation
          JOINT Head
          {
            OFFSET 6.45672 0 0
            CHANNELS 6 Xposition Yposition Zposition Zrotation Xrotation Yrotation
            End Site
            {
              OFFSET 0 0 0
            }
          }
        }
        JOINT Shoulder_L
        {
          OFFSET 12.9942 -0.242716 4.98039
          CHANNELS 6 Xposition Yposition Zposition Zrotation Xrotation Yrotation
          JOINT UpperArm_L
          {
            OFFSET 5.34809 0 0
            CHANNELS 6 Xposition Yposition Zposition Zrotation Xrotation Yrotation
            JOINT LowerArm_L
            {
              OFFSET 24.3286 1.87007e-05 0
              CHANNELS 6 Xposition Yposition Zposition Zrotation Xrotation Yrotation
              JOINT Hand_L
              {
                OFFSET 22.2916 0 0
                CHANNELS 6 Xposition Yposition Zposition Zrotation Xrotation Yrotation
                End Site
                {
                  OFFSET 0 0 0
                }
              }
            }
          }
        }
        JOINT Shoulder_R
        {
          OFFSET 12.9945 -0.242716 -4.98039
          CHANNELS 6 Xposition Yposition Zposition Zrotation Xrotation Yrotation
          JOINT UpperArm_R
          {
            OFFSET -5.34813 0 0
            CHANNELS 6 Xposition Yposition Zposition Zrotation Xrotation Yrotation
            JOINT LowerArm_R
            {
              OFFSET -24.3289 0.000322201 0
              CHANNELS 6 Xposition Yposition Zposition Zrotation Xrotation Yrotation
              JOINT Hand_R
              {
                OFFSET -22.2915 -0.000108084 0
                CHANNELS 6 Xposition Yposition Zposition Zrotation Xrotation Yrotation
                End Site
                {
                  OFFSET 0 0 0
                }
              }
            }
          }
        }
      }
    }
    JOINT UpperLeg_L
    {
      OFFSET -2.19248 -6.46944 0
      CHANNELS 6 Xposition Yposition Zposition Zrotation Xrotation Yrotation
      JOINT LowerLeg_L
      {
        OFFSET 39.0811 0 -1.23785e-05
        CHANNELS 6 Xposition Yposition Zposition Zrotation Xrotation Yrotation
        JOINT Foot_L
        {
          OFFSET 40.9854 0 -1.26872e-05
          CHANNELS 6 Xposition Yposition Zposition Zrotation Xrotation Yrotation
          JOINT Toes_L
          {
            OFFSET 11.7543 0 0
            CHANNELS 6 Xposition Yposition Zposition Zrotation Xrotation Yrotation
            End Site
            {
              OFFSET 0 0 0
            }
          }
        }
      }
    }
    JOINT UpperLeg_R
    {
      OFFSET -2.19251 6.46944 0
      CHANNELS 6 Xposition Yposition Zposition Zrotation Xrotation Yrotation
      JOINT LowerLeg_R
      {
        OFFSET -39.0811 -0.00228153 -0.0401928
        CHANNELS 6 Xposition Yposition Zposition Zrotation Xrotation Yrotation
        JOINT Foot_R
        {
          OFFSET -40.9854 0 0
          CHANNELS 6 Xposition Yposition Zposition Zrotation Xrotation Yrotation
          JOINT Toes_R
          {
            OFFSET -11.7543 0 0
            CHANNELS 6 Xposition Yposition Zposition Zrotation Xrotation Yrotation
            End Site
            {
              OFFSET 0 0 0
            }
          }
        }
      }
    }
  }
}
MOTION
Frames:	9
Frame Time:	0.0333333
0 0 0 0 0 -0 265.368 89.5263 -11.2602 84.8876 -52.5547 -6.34444 15.7357 5.1072e-06 -5.51765e-07 106.223 76.0076 -109.921 8.98455 -0.406207 -4.3199e-07 19.4701 7.27885 -8.67554 16.3773 -1.3905e-06 -6.99897e-07 -4.75776 6.2535 0.0719307 6.45672 -1.25837e-06 -1.02172e-07 2.0244 0.787094 -1.00976 12.9942 -0.242716 4.98039 -89.3324 -3.53753 -94.3052 5.34809 -7.22636e-06 -6.2814e-07 -73.5118 -17.7531 16.0256 24.3286 1.87007e-05 4.90208e-06 3.24115 -3.48773 -137.051 22.2916 -9.88446e-07 4.63217e-06 13.2541 5.31596 -0.380354 12.9945 -0.242716 -4.98039 89.7381 -3.53475 -109.24 -5.34813 -1.25947e-06 -3.79883e-06 -77.4113 -9.69868 -15.3077 -24.3289 0.000322201 -8.65921e-06 6.43112 -5.1837 -128.713 -22.2915 -0.000108084 -4.47941e-06 48.1591 5.65912 -15.9562 -2.19248 -6.46944 -1.22534e-07 -167.373 11.3145 -35.7655 39.0811 -6.73843e-06 -1.23785e-05 -0.073318 0.0290394 59.4888 40.9854 -6.48686e-06 -1.26872e-05 -5.49509 -1.73172 -52.6657 11.7543 -2.30145e-07 3.05095e-06 0.326529 -0.386328 -20.2638 -2.19251 6.46944 -1.45247e-06 -164.261 18.7111 161.748 -39.0811 -0.00228153 -0.0401928 -0.0180939 0.0577141 29.092 -40.9854 7.72618e-06 5.99936e-06 9.15827 -14.216 -67.3239 -11.7543 -5.6619e-06 -5.58687e-06 -0.461596 -0.376802 -16.2528 
0 0 0 0 0 -0 264.268 89.5271 -11.1916 85.2438 -53.159 -6.27681 15.7357 5.1072e-06 -5.51765e-07 107.335 75.8898 -111.155 8.98455 -0.406207 -4.3199e-07 19.5851 7.839 -9.02562 16.3773 -1.3905e-06 -6.99897e-07 -5.02995 6.59647 0.183582 6.45672 -1.25837e-06 -1.02172e-07 1.77264 0.667919 -1.2069 12.9942 -0.242716 4.98039 -89.3401 -3.27898 -93.6131 5.34809 -7.22636e-06 -6.2814e-07 -73.0727 -17.688 18.0384 24.3286 1.87007e-05 4.90208e-06 3.19526 -3.41906 -136.892 22.2916 -9.88446e-07 4.63217e-06 13.1786 5.31912 -0.470595 12.9945 -0.242716 -4.98039 89.6722 -3.90427 -109.802 -5.34813 -1.25947e-06 -3.79883e-06 -78.0129 -9.7007 -17.9497 -24.3289 0.000322201 -8.65921e-06 6.31178 -5.16976 -129.167 -22.2915 -0.000108084 -4.47941e-06 47.7004 5.65932 -15.9814 -2.19248 -6.46944 -1.22533e-07 -169.122 11.2028 -36.7257 39.0811 -6.73843e-06 -1.23785e-05 -0.0967578 0.0548005 54.1011 40.9854 -6.48686e-06 -1.26872e-05 -6.0665 -0.176036 -53.1505 11.7543 -2.30144e-07 3.05095e-06 0.308459 -0.363589 -20.0521 -2.19251 6.46944 -1.45247e-06 -164.216 20.0432 162.31 -39.0811 -0.00228153 -0.0401928 -0.0305227 0.0795286 29.0013 -40.9854 7.72618e-06 5.99936e-06 9.27921 -12.5564 -67.8936 -11.7543 -5.6619e-06 -5.58687e-06 -0.445622 -0.368772 -16.6958 
0 0 0 0 0 -0 263.133 89.5208 -11.0316 85.6144 -53.7262 -6.19178 15.7357 5.1072e-06 -5.51765e-07 108.728 75.7635 -112.703 8.98455 -0.406207 -4.3199e-07 19.6742 8.53652 -9.46938 16.3773 -1.3905e-06 -6.99897e-07 -5.28444 6.88288 0.380299 6.45672 -1.25837e-06 -1.02172e-07 1.6273 0.403735 -1.16848 12.9942 -0.242716 4.98039 -89.3598 -2.96747 -92.8175 5.34809 -7.22636e-06 -6.2814e-07 -72.7926 -17.3923 19.44 24.3286 1.87007e-05 4.90208e-06 3.21913 -3.42557 -136.733 22.2916 -9.88446e-07 4.63217e-06 13.248 5.32756 -0.715254 12.9945 -0.242716 -4.98039 89.6047 -4.09769 -110.515 -5.34813 -1.25947e-06 -3.79883e-06 -78.617 -9.82563 -19.7114 -24.3289 0.000322201 -8.65921e-06 6.08046 -5.08087 -129.737 -22.2915 -0.000108084 -4.47941e-06 47.6259 5.65976 -16.0287 -2.19248 -6.46944 -1.22533e-07 -170.966 10.7956 -36.6352 39.0811 -6.73843e-06 -1.23785e-05 -0.0888001 0.0772286 46.9933 40.9854 -6.48686e-06 -1.26872e-05 -7.16257 1.76946 -53.0886 11.7543 -2.30145e-07 3.05095e-06 0.314026 -0.370545 -20.1168 -2.19251 6.46944 -1.45247e-06 -164.259 21.3202 162.945 -39.0811 -0.00228153 -0.0401928 -0.0442454 0.103316 28.9099 -40.9854 7.72618e-06 5.99936e-06 9.3287 -10.9467 -68.4913 -11.7543 -5.6619e-06 -5.58687e-06 -0.266315 -0.167388 -17.2968 
0 0 0 0 0 -0 261.898 89.4971 -10.7574 85.8153 -54.2385 -6.18772 15.7357 5.1072e-06 -5.51765e-07 110.288 75.6375 -114.352 8.98455 -0.406207 -4.3199e-07 19.7191 9.32651 -9.792 16.3773 -1.3905e-06 -6.99897e-07 -5.53863 7.21839 0.494299 6.45672 -1.25837e-06 -1.02172e-07 1.69314 0.206825 -1.22415 12.9942 -0.242716 4.98039 -89.4623 -2.34193 -92.0629 5.34809 -7.22636e-06 -6.2814e-07 -72.3234 -17.2965 20.7476 24.3286 1.87007e-05 4.90208e-06 3.34306 -3.5506 -136.674 22.2916 -9.88446e-07 4.63217e-06 12.9572 5.33348 -0.887436 12.9945 -0.242716 -4.98039 89.5532 -4.17825 -111.109 -5.34813 -1.25947e-06 -3.79883e-06 -79.07 -9.73492 -20.8297 -24.3289 0.000322201 -8.65921e-06 6.17856 -5.21331 -130.006 -22.2915 -0.000108084 -4.47941e-06 47.5401 5.66081 -16.1539 -2.19248 -6.46944 -1.22533e-07 -172.881 9.92055 -35.6644 39.0811 -6.73843e-06 -1.23785e-05 -0.0855641 0.090872 38.821 40.9854 -6.48686e-06 -1.26872e-05 -8.61609 3.06218 -52.8029 11.7543 -2.30144e-07 3.05095e-06 0.319798 -0.377831 -20.1849 -2.19251 6.46944 -1.45247e-06 -164.311 22.2624 163.692 -39.0811 -0.00228153 -0.0401928 -0.0550095 0.122743 28.9025 -40.9854 7.72618e-06 5.99936e-06 9.32748 -9.81523 -69.0046 -11.7543 -5.6619e-06 -5.58687e-06 -0.138207 -0.0771375 -17.9663 
0 0 0 0 0 -0 260.524 89.4202 -10.4062 85.7399 -54.6477 -6.35547 15.7357 5.1072e-06 -5.51765e-07 111.811 75.5028 -115.892 8.98455 -0.406207 -4.3199e-07 19.7593 10.1186 -9.97107 16.3773 -1.3905e-06 -6.99897e-07 -5.72522 7.65444 0.602834 6.45672 -1.25837e-06 -1.02172e-07 1.54793 0.163251 -1.41166 12.9942 -0.242716 4.98039 -89.5833 -1.70325 -91.247 5.34809 -7.22636e-06 -6.2814e-07 -72.0809 -17.2502 21.828 24.3286 1.87007e-05 4.90208e-06 3.17294 -3.35395 -136.543 22.2916 -9.88446e-07 4.63217e-06 13.0423 5.34084 -1.10426 12.9945 -0.242716 -4.98039 89.509 -4.27284 -111.561 -5.34813 -1.25947e-06 -3.79883e-06 -79.3751 -9.3686 -21.3416 -24.3289 0.000322201 -8.65921e-06 6.28634 -5.31736 -130.071 -22.2915 -0.000108084 -4.47941e-06 47.6686 5.65994 -16.0512 -2.19248 -6.46944 -1.22533e-07 -174.737 8.80762 -33.8237 39.0811 -6.73843e-06 -1.23785e-05 -0.0386621 0.0912911 29.8103 40.9854 -6.48686e-06 -1.26872e-05 -10.2997 3.22285 -50.8836 11.7543 -2.30145e-07 3.05095e-06 0.327653 -0.387734 -20.2767 -2.19251 6.46944 -1.45247e-06 -164.258 22.7413 164.443 -39.0811 -0.00228153 -0.0401928 -0.0634709 0.137407 29.1814 -40.9854 7.72618e-06 5.99936e-06 9.41769 -9.32066 -69.3858 -11.7543 -5.6619e-06 -5.58687e-06 -0.0933835 -0.227806 -18.7417 
0 0 0 0 0 -0 259.01 89.287 -9.98941 85.7636 -54.6786 -6.52524 15.7357 5.1072e-06 -5.51764e-07 112.985 75.4503 -117.058 8.98455 -0.406207 -4.3199e-07 19.6754 10.7028 -10.0495 16.3773 -1.3905e-06 -6.99897e-07 -5.8942 7.95023 0.630392 6.45672 -1.25837e-06 -1.02172e-07 1.45042 0.100508 -1.48615 12.9942 -0.242716 4.98039 -89.6843 -1.22967 -90.5992 5.34809 -7.22636e-06 -6.2814e-07 -72.097 -17.3455 22.5974 24.3286 1.87007e-05 4.90208e-06 3.02827 -3.17931 -136.353 22.2916 -9.88446e-07 4.63217e-06 13.0483 5.33956 -1.06617 12.9945 -0.242716 -4.98039 89.4898 -4.27227 -111.817 -5.34813 -1.25947e-06 -3.79883e-06 -79.5397 -8.96662 -21.3105 -24.3289 0.000322201 -8.65921e-06 6.42851 -5.39553 -129.845 -22.2915 -0.000108084 -4.47941e-06 47.6607 5.66055 -16.1236 -2.19248 -6.46944 -1.22533e-07 -177.142 7.49634 -32.8605 39.0811 -6.73843e-06 -1.23785e-05 -0.0925613 0.205273 22.8657 40.9854 -6.48686e-06 -1.26872e-05 -7.83778 3.11633 -47.2876 11.7543 -2.30144e-07 3.05095e-06 0.323168 -0.382084 -20.2242 -2.19251 6.46944 -1.45247e-06 -164.212 23.1389 164.829 -39.0811 -0.00228153 -0.0401928 -0.064968 0.137819 30.0222 -40.9854 7.72618e-06 5.99936e-06 9.09192 -9.17421 -69.7568 -11.7543 -5.6619e-06 -5.58687e-06 0.0420016 -0.201804 -19.7022 
0 0 0 0 0 -0 257.32 89.1519 -9.51296 86.1132 -54.34 -6.5152 15.7357 5.1072e-06 -5.51764e-07 113.577 75.4984 -117.665 8.98455 -0.406207 -4.3199e-07 19.4876 10.9452 -10.1035 16.3773 -1.3905e-06 -6.99897e-07 -6.00588 8.15519 0.670646 6.45672 -1.25837e-06 -1.02172e-07 1.4611 0.106383 -1.59607 12.9942 -0.242716 4.98039 -89.7652 -0.888558 -90.1972 5.34809 -7.22636e-06 -6.2814e-07 -72.3598 -17.5736 23.0164 24.3286 1.87007e-05 4.90208e-06 3.15022 -3.29531 -136.246 22.2916 -9.88446e-07 4.63217e-06 13.1628 5.33899 -1.04944 12.9945 -0.242716 -4.98039 89.4848 -4.18796 -112.02 -5.34813 -1.25947e-06 -3.79883e-06 -79.6167 -8.57155 -20.806 -24.3289 0.000322201 -8.65921e-06 6.88209 -5.69854 -129.442 -22.2915 -0.000108084 -4.47941e-06 47.8684 5.6605 -16.123 -2.19248 -6.46944 -1.22533e-07 -179.672 5.75718 -31.5569 39.0811 -6.73843e-06 -1.23785e-05 -0.0919172 0.288586 16.8244 40.9854 -6.48686e-06 -1.26872e-05 -5.4529 3.28819 -43.4863 11.7543 -2.30145e-07 3.05095e-06 0.299433 -0.352281 -19.9466 -2.19251 6.46944 -1.45247e-06 -164.294 23.8974 164.908 -39.0811 -0.00228153 -0.0401928 -0.0636657 0.131417 31.389 -40.9854 7.72618e-06 5.99936e-06 8.7579 -8.91469 -70.0794 -11.7543 -5.6619e-06 -5.58687e-06 0.271575 -0.261839 -20.3344 
0 0 0 0 0 -0 255.409 89.0487 -8.93328 86.6582 -53.8724 -6.40786 15.7357 5.1072e-06 -5.51764e-07 113.8 75.6125 -117.935 8.98455 -0.406207 -4.3199e-07 19.2365 10.9664 -10.1752 16.3773 -1.3905e-06 -6.99897e-07 -6.15471 8.35575 0.815204 6.45672 -1.25837e-06 -1.02172e-07 1.57384 0.245882 -1.89895 12.9942 -0.242716 4.98039 -89.8251 -0.650887 -89.9554 5.34809 -7.22636e-06 -6.2814e-07 -72.8482 -17.8342 22.9879 24.3286 1.87007e-05 4.90208e-06 3.02705 -3.1639 -136.226 22.2916 -9.88446e-07 4.63217e-06 13.1496 5.34311 -1.17211 12.9945 -0.242716 -4.98039 89.4953 -4.0306 -112.143 -5.34813 -1.25947e-06 -3.79883e-06 -79.4787 -8.10363 -19.8799 -24.3289 0.000322201 -8.65921e-06 6.78396 -5.55341 -129.128 -22.2915 -0.000108084 -4.47941e-06 47.9607 5.66126 -16.2183 -2.19248 -6.46944 -1.22533e-07 177.963 4.33344 -30.6437 39.0811 -6.73843e-06 -1.23785e-05 -0.0882435 0.340868 13.9392 40.9854 -6.48686e-06 -1.26872e-05 -1.45605 2.72864 -42.2278 11.7543 -2.30144e-07 3.05095e-06 0.2972 -0.349498 -19.9207 -2.19251 6.46944 -1.45247e-06 -164.565 25.0511 164.968 -39.0811 -0.00228153 -0.0401928 -0.0566399 0.115755 32.9458 -40.9854 7.72618e-06 5.99936e-06 8.2254 -8.2567 -70.1846 -11.7543 -5.6619e-06 -5.58687e-06 0.61196 -0.272733 -20.9998 
0 0 0 0 0 -0 253.278 88.9869 -8.28711 87.664 -53.4412 -6.15899 15.7357 5.1072e-06 -5.51765e-07 113.747 75.8517 -118.098 8.98455 -0.406207 -4.3199e-07 18.8088 10.7578 -10.5306 16.3773 -1.3905e-06 -6.99897e-07 -6.09103 8.5009 1.04223 6.45672 -1.25837e-06 -1.02172e-07 1.42664 0.342389 -2.03254 12.9942 -0.242716 4.98039 -89.8545 -0.536216 -89.8156 5.34809 -7.22636e-06 -6.2814e-07 -73.4349 -17.9757 22.362 24.3286 1.87007e-05 4.90208e-06 2.84656 -2.98846 -136.357 22.2916 -9.88446e-07 4.63217e-06 13.309 5.34497 -1.22609 12.9945 -0.242716 -4.98039 89.5267 -3.74634 -112.206 -5.34813 -1.25947e-06 -3.79883e-06 -79.312 -7.66507 -18.6691 -24.3289 0.000322201 -8.65921e-06 6.94512 -5.61506 -128.772 -22.2915 -0.000108084 -4.47941e-06 48.0906 5.66108 -16.1891 -2.19248 -6.46944 -1.22534e-07 176.371 4.09968 -30.4799 39.0811 -6.73843e-06 -1.23785e-05 -0.0817044 0.297112 14.5188 40.9854 -6.48686e-06 -1.26872e-05 5.60108 2.53889 -41.6796 11.7543 -2.30145e-07 3.05095e-06 0.288841 -0.339093 -19.8236 -2.19251 6.46944 -1.45247e-06 -165.081 26.2746 164.821 -39.0811 -0.00228153 -0.0401928 -0.0470637 0.096345 34.6588 -40.9854 7.72618e-06 5.99936e-06 7.7042 -7.34196 -69.7931 -11.7543 -5.6619e-06 -5.58687e-06 0.686425 -0.786274 -22.3835 
